name Walk10.mot
datacolumns 19
datarows 17
range 2.15500000 2.23500000
endheader

                time	   L_ground_force_vx	   L_ground_force_vy	   L_ground_force_vz	   L_ground_force_px	   L_ground_force_py	   L_ground_force_pz	   R_ground_force_vx	   R_ground_force_vy	   R_ground_force_vz	   R_ground_force_px	   R_ground_force_py	   R_ground_force_pz	   L_ground_torque_x	   L_ground_torque_y	   L_ground_torque_z	   R_ground_torque_x	   R_ground_torque_y	   R_ground_torque_z	
          2.15500000	          0.00201310	          0.01476857	         -0.00177139	         -0.00016142	          0.00000000	         -0.00007469	        -27.98785381	        544.03145613	        -45.37834616	          0.25241349	          0.00000000	          0.08945888	          0.00000000	          0.00006290	          0.00000000	          0.00000000	          0.43888598	          0.00000000	
          2.16000000	         -0.00063531	          0.00359981	         -0.00147297	         -0.00011682	          0.00000000	         -0.00005508	        -25.64473294	        537.24381527	        -44.62898777	          0.25410624	          0.00000000	          0.09002033	          0.00000000	          0.00004429	          0.00000000	          0.00000000	          0.42384189	          0.00000000	
          2.16500000	         -0.00228344	         -0.00384720	         -0.00116511	         -0.00007898	          0.00000000	         -0.00003815	        -23.38944632	        530.91102632	        -43.83062289	          0.25575802	          0.00000000	          0.09053950	          0.00000000	          0.00002886	          0.00000000	          0.00000000	          0.41036062	          0.00000000	
          2.17000000	         -0.00315976	         -0.00831856	         -0.00087554	         -0.00004847	          0.00000000	         -0.00002427	        -21.21307204	        525.04555645	        -43.02161922	          0.25736362	          0.00000000	          0.09101643	          0.00000000	          0.00001668	          0.00000000	          0.00000000	          0.39779713	          0.00000000	
          2.17500000	         -0.00347183	         -0.01052806	         -0.00062060	         -0.00002507	          0.00000000	         -0.00001346	        -19.10718367	        519.65292254	        -42.24368542	          0.25892002	          0.00000000	          0.09145366	          0.00000000	          0.00000755	          0.00000000	          0.00000000	          0.38497987	          0.00000000	
          2.18000000	         -0.00339737	         -0.01111233	         -0.00040803	         -0.00000808	          0.00000000	         -0.00000546	        -17.06514051	        514.72972918	        -41.53725129	          0.26042538	          0.00000000	          0.09185363	          0.00000000	          0.00000110	          0.00000000	          0.00000000	          0.37037451	          0.00000000	
          2.18500000	         -0.00308094	         -0.01060815	         -0.00023944	          0.00000345	          0.00000000	          0.00000011	        -15.08330111	        510.26413103	        -40.93808128	          0.26187855	          0.00000000	          0.09221782	          0.00000000	         -0.00000312	          0.00000000	          0.00000000	          0.35244659	          0.00000000	
          2.19000000	         -0.00263434	         -0.00944586	         -0.00011239	          0.00001057	          0.00000000	          0.00000367	        -13.16173710	        506.24187358	        -40.47429028	          0.26328115	          0.00000000	          0.09254857	          0.00000000	         -0.00000559	          0.00000000	          0.00000000	          0.33007270	          0.00000000	
          2.19500000	         -0.00213961	         -0.00795345	         -0.00002203	          0.00001431	          0.00000000	          0.00000566	        -11.30344767	        502.65087019	        -40.16415265	          0.26463822	          0.00000000	          0.09284799	          0.00000000	         -0.00000672	          0.00000000	          0.00000000	          0.30292464	          0.00000000	
          2.20000000	         -0.00165313	         -0.00636738	          0.00003766	          0.00001557	          0.00000000	          0.00000649	         -9.51268904	        499.48385592	        -40.01392577	          0.26595506	          0.00000000	          0.09311841	          0.00000000	         -0.00000692	          0.00000000	          0.00000000	          0.27144618	          0.00000000	
          2.20500000	         -0.00121042	         -0.00484668	          0.00007296	          0.00001515	          0.00000000	          0.00000651	         -7.79325503	        496.74113657	        -40.01744946	          0.26723564	          0.00000000	          0.09336059	          0.00000000	         -0.00000650	          0.00000000	          0.00000000	          0.23713689	          0.00000000	
          2.21000000	         -0.00083078	         -0.00348817	          0.00008983	          0.00001368	          0.00000000	          0.00000600	         -6.14835466	        494.43496477	        -40.15750573	          0.26848534	          0.00000000	          0.09357324	          0.00000000	         -0.00000572	          0.00000000	          0.00000000	          0.20241067	          0.00000000	
          2.21500000	         -0.00052163	         -0.00234111	          0.00009354	          0.00001165	          0.00000000	          0.00000521	         -4.57989253	        492.59270417	        -40.40762077	          0.26971230	          0.00000000	          0.09375504	          0.00000000	         -0.00000476	          0.00000000	          0.00000000	          0.16967098	          0.00000000	
          2.22000000	         -0.00028212	         -0.00142037	          0.00008852	          0.00000943	          0.00000000	          0.00000428	         -3.08650329	        491.25459199	        -40.73570747	          0.27092406	          0.00000000	          0.09390545	          0.00000000	         -0.00000377	          0.00000000	          0.00000000	          0.14085264	          0.00000000	
          2.22500000	         -0.00010621	         -0.00071758	          0.00007830	          0.00000727	          0.00000000	          0.00000335	         -1.66312269	        490.47258557	        -41.10785912	          0.27212709	          0.00000000	          0.09402514	          0.00000000	         -0.00000284	          0.00000000	          0.00000000	          0.11745905	          0.00000000	
          2.23000000	          0.00001499	         -0.00021015	          0.00006556	          0.00000530	          0.00000000	          0.00000249	         -0.30184123	        490.30788824	        -41.49215800	          0.27332367	          0.00000000	          0.09411560	          0.00000000	         -0.00000202	          0.00000000	          0.00000000	          0.10085775	          0.00000000	
          2.23500000	          0.00009153	          0.00013188	          0.00005220	          0.00000362	          0.00000000	          0.00000174	          1.00700008	        490.82442438	        -41.86165596	          0.27451124	          0.00000000	          0.09417766	          0.00000000	         -0.00000133	          0.00000000	          0.00000000	          0.09217073	          0.00000000	
